<svg viewBox="0 0 24 24" fill="none" xmlns="http://www.w3.org/2000/svg">
  <path d="M10 20H14H19V12H22L12 3L2 12H5V20H10Z" fill="#3F51B5"/>
  <path d="M6.95482 13.68C6.70482 13.54 6.62982 13.235 6.76982 12.995L7.51982 11.7C7.57482 11.6 7.65982 11.53 7.75482 11.49L11.6698 9.29C11.7498 9.23 11.8498 9.2 11.9548 9.2C12.0598 9.2 12.1598 9.23 12.2398 9.29L16.1898 11.51C16.2848 11.56 16.3648 11.64 16.4098 11.74L17.1348 13C17.2748 13.24 17.1898 13.545 16.9548 13.68L16.4548 13.97V16.45C16.4548 16.64 16.3498 16.805 16.1898 16.89L12.2398 19.11C12.1598 19.17 12.0598 19.2 11.9548 19.2C11.8498 19.2 11.7498 19.17 11.6698 19.11L7.71982 16.89C7.55982 16.805 7.45482 16.64 7.45482 16.45V13.68C7.30482 13.765 7.11482 13.77 6.95482 13.68ZM11.9548 10.275V13.625L14.9348 11.95L11.9548 10.275ZM8.45482 16.155L11.4548 17.845V14.49L8.45482 12.805V16.155ZM15.4548 16.155V14.545L12.9548 15.995C12.7898 16.085 12.6048 16.08 12.4548 16V17.845L15.4548 16.155ZM12.8798 14.88L16.0198 13.065L15.7298 12.56L12.5898 14.375L12.8798 14.88Z" fill="white"/>
</svg>